<?xml version="1.0" encoding="UTF-8" standalone="no"?>
<!-- Created with Inkscape (http://www.inkscape.org/) -->

<svg
   xmlns:dc="http://purl.org/dc/elements/1.1/"
   xmlns:cc="http://creativecommons.org/ns#"
   xmlns:rdf="http://www.w3.org/1999/02/22-rdf-syntax-ns#"
   xmlns:svg="http://www.w3.org/2000/svg"
   xmlns="http://www.w3.org/2000/svg"
   xmlns:sodipodi="http://sodipodi.sourceforge.net/DTD/sodipodi-0.dtd"
   xmlns:inkscape="http://www.inkscape.org/namespaces/inkscape"
   width="210mm"
   height="297mm"
   viewBox="0 0 744.09448819 1052.3622047"
   id="svg2"
   version="1.1"
   inkscape:version="0.91 r13725"
   sodipodi:docname="images.svg">
  <defs
     id="defs4" />
  <sodipodi:namedview
     id="base"
     pagecolor="#ffffff"
     bordercolor="#666666"
     borderopacity="1.0"
     inkscape:pageopacity="0.0"
     inkscape:pageshadow="2"
     inkscape:zoom="1.4"
     inkscape:cx="625.70762"
     inkscape:cy="-709.85836"
     inkscape:document-units="px"
     inkscape:current-layer="layer1"
     showgrid="false"
     inkscape:window-width="1920"
     inkscape:window-height="1017"
     inkscape:window-x="-8"
     inkscape:window-y="-8"
     inkscape:window-maximized="1" />
  <metadata
     id="metadata7">
    <rdf:RDF>
      <cc:Work
         rdf:about="">
        <dc:format>image/svg+xml</dc:format>
        <dc:type
           rdf:resource="http://purl.org/dc/dcmitype/StillImage" />
        <dc:title />
      </cc:Work>
    </rdf:RDF>
  </metadata>
  <g
     inkscape:label="Layer 1"
     inkscape:groupmode="layer"
     id="layer1">
    <g
       id="g4528"
       inkscape:export-filename="E:\Projects\kinder\assets\images\reward-moon.png"
       inkscape:export-xdpi="90"
       inkscape:export-ydpi="90"
       transform="translate(151.52288,4.0406138)">
      <rect
         y="1192.0049"
         x="252.58318"
         height="300"
         width="300"
         id="rect4507"
         style="opacity:0;fill:#000000;fill-opacity:1;fill-rule:nonzero;stroke:none;stroke-width:6;stroke-linecap:round;stroke-linejoin:miter;stroke-miterlimit:4;stroke-dasharray:none;stroke-opacity:1" />
      <g
         transform="matrix(1.2386316,0,0,1.2386316,-118.94916,-320.5771)"
         id="g4524">
        <path
           style="opacity:1;fill:#1c1c24;fill-opacity:1;fill-rule:nonzero;stroke:none;stroke-width:6;stroke-linecap:round;stroke-linejoin:miter;stroke-miterlimit:4;stroke-dasharray:none;stroke-opacity:1"
           d="m 384.94224,1228.5435 c -15.07696,0.3554 -29.73995,4.3608 -44.13867,8.5117 37.79676,15.7518 68.21655,51.331 72.07884,92.8299 5.00832,42.4447 -16.78673,87.0538 -54.28212,108.1812 -5.49946,3.357 -11.17,6.4197 -16.80844,9.5339 35.24931,13.673 77.267,11.0553 108.83399,-10.5586 39.83812,-26.1722 59.96343,-78.9685 46.52911,-124.8938 -11.87048,-43.8481 -51.9767,-78.7868 -97.46857,-82.8992 -4.89396,-0.5389 -9.82065,-0.7827 -14.74414,-0.7051 z"
           id="path4516"
           inkscape:connector-curvature="0" />
        <path
           style="opacity:1;fill:#0066ff;fill-opacity:1;fill-rule:nonzero;stroke:none;stroke-width:6;stroke-linecap:round;stroke-linejoin:miter;stroke-miterlimit:4;stroke-dasharray:none;stroke-opacity:1"
           d="m 387.34477,1234.505 a 107.85719,107.85719 0 0 0 -30.21464,4.3826 117.05431,117.05431 0 0 1 62.48688,103.4743 117.05431,117.05431 0 0 1 -62.47317,103.4673 107.85719,107.85719 0 0 0 30.20093,4.3896 107.85719,107.85719 0 0 0 107.85685,-107.8569 107.85719,107.85719 0 0 0 -107.85685,-107.8569 z"
           id="path4511"
           inkscape:connector-curvature="0" />
      </g>
    </g>
    <g
       id="g4244"
       inkscape:export-filename="E:\Projects\kinder\assets\images\shell-top-egg.png"
       inkscape:export-xdpi="90"
       inkscape:export-ydpi="90"
       transform="translate(55.518454,-9.3530254)">
      <g
         style="opacity:0"
         transform="translate(26.429307,-77.857172)"
         id="g4212">
        <rect
           ry="0"
           y="183.79077"
           x="-682.85718"
           height="600"
           width="600"
           id="rect4168"
           style="opacity:1;fill:#afc74d;fill-opacity:1;fill-rule:nonzero;stroke:none;stroke-width:6;stroke-linecap:round;stroke-linejoin:miter;stroke-miterlimit:4;stroke-dasharray:none;stroke-opacity:1" />
        <rect
           y="386.64792"
           x="-668.57147"
           height="194.28572"
           width="571.42859"
           id="rect4170"
           style="opacity:1;fill:#6c6753;fill-opacity:1;fill-rule:nonzero;stroke:none;stroke-width:6;stroke-linecap:round;stroke-linejoin:miter;stroke-miterlimit:4;stroke-dasharray:none;stroke-opacity:1" />
      </g>
      <path
         inkscape:connector-curvature="0"
         id="path4146"
         d="m -356.42885,119.50586 a 216.42857,286.42859 0 0 0 -216.42774,286.42773 216.42857,286.42859 0 0 0 2.67774,43.55274 l 58.75,-45.69531 75.71484,57.14257 64.28516,-91.42773 31.42969,100 65.71289,-97.14453 65.71484,92.85742 68.08984,-77.29102 A 216.42857,286.42859 0 0 0 -356.42885,119.50586 Z m -213.75,329.98047 a 216.42857,286.42859 0 0 0 4.3125,27.7832 216.42857,286.42859 0 0 1 -4.3125,-27.7832 z m 429.25586,-19.13477 a 216.42857,286.42859 0 0 1 -1.29883,14.16797 216.42857,286.42859 0 0 0 1.29883,-14.16797 z m -2.91992,28.36719 a 216.42857,286.42859 0 0 1 -2.35547,13.88867 216.42857,286.42859 0 0 0 2.35547,-13.88867 z m -421.96875,18.86914 a 216.42857,286.42859 0 0 0 6.3125,26.75391 216.42857,286.42859 0 0 1 -6.3125,-26.75391 z m 416.92187,8.9668 a 216.42857,286.42859 0 0 1 -3.38476,13.48047 216.42857,286.42859 0 0 0 3.38476,-13.48047 z m -410.45117,18.41797 a 216.42857,286.42859 0 0 0 8.1582,25.35156 216.42857,286.42859 0 0 1 -8.1582,-25.35156 z m 403.33398,8.59179 a 216.42857,286.42859 0 0 1 -4.39648,13.00391 216.42857,286.42859 0 0 0 4.39648,-13.00391 z m -394.8164,17.82422 a 216.42857,286.42859 0 0 0 9.79297,23.57227 216.42857,286.42859 0 0 1 -9.79297,-23.57227 z m 385.69726,8.11328 a 216.42857,286.42859 0 0 1 -5.36133,12.3711 216.42857,286.42859 0 0 0 5.36133,-12.3711 z m -375.20703,17.06836 a 216.42857,286.42859 0 0 0 11.20899,21.56055 216.42857,286.42859 0 0 1 -11.20899,-21.56055 z m 364.18555,7.52344 a 216.42857,286.42859 0 0 1 -6.28516,11.62891 216.42857,286.42859 0 0 0 6.28516,-11.62891 z m -351.83594,16.14453 a 216.42857,286.42859 0 0 0 12.35938,19.31836 216.42857,286.42859 0 0 1 -12.35938,-19.31836 z m 338.99219,6.90039 a 216.42857,286.42859 0 0 1 -7.11133,10.71289 216.42857,286.42859 0 0 0 7.11133,-10.71289 z m -324.89844,15.0293 a 216.42857,286.42859 0 0 0 13.23633,16.92383 216.42857,286.42859 0 0 1 -13.23633,-16.92383 z m 310.40234,6.17578 a 216.42857,286.42859 0 0 1 -7.9082,9.75 216.42857,286.42859 0 0 0 7.9082,-9.75 z m -294.70898,13.77734 a 216.42857,286.42859 0 0 0 13.82812,14.44336 216.42857,286.42859 0 0 1 -13.82812,-14.44336 z m 278.68164,5.41407 a 216.42857,286.42859 0 0 1 -8.61328,8.66601 216.42857,286.42859 0 0 0 8.61328,-8.66601 z m -261.54102,12.36132 a 216.42857,286.42859 0 0 0 14.1211,11.92969 216.42857,286.42859 0 0 1 -14.1211,-11.92969 z m 244.13477,4.625 a 216.42857,286.42859 0 0 1 -9.21289,7.47657 216.42857,286.42859 0 0 0 9.21289,-7.47657 z m -225.7207,10.78907 a 216.42857,286.42859 0 0 0 14.09375,9.43164 216.42857,286.42859 0 0 1 -14.09375,-9.43164 z m 207.1289,3.80859 a 216.42857,286.42859 0 0 1 -9.74609,6.23047 216.42857,286.42859 0 0 0 9.74609,-6.23047 z m -187.61718,9.08594 a 216.42857,286.42859 0 0 0 13.73828,7.01367 216.42857,286.42859 0 0 1 -13.73828,-7.01367 z m 168.02148,2.97851 a 216.42857,286.42859 0 0 1 -10.1875,4.91993 216.42857,286.42859 0 0 0 10.1875,-4.91993 z m -147.61133,7.25782 a 216.42857,286.42859 0 0 0 13.22071,4.80664 216.42857,286.42859 0 0 1 -13.22071,-4.80664 z m 127.19336,2.16015 a 216.42857,286.42859 0 0 1 -10.49414,3.54688 216.42857,286.42859 0 0 0 10.49414,-3.54688 z m -106.13672,5.29492 a 216.42857,286.42859 0 0 0 12.49805,2.8086 216.42857,286.42859 0 0 1 -12.49805,-2.8086 z m 85.11524,1.37891 a 216.42857,286.42859 0 0 1 -10.73633,2.14649 216.42857,286.42859 0 0 0 10.73633,-2.14649 z m -63.57032,3.24023 a 216.42857,286.42859 0 0 0 11.54493,1.04297 216.42857,286.42859 0 0 1 -11.54493,-1.04297 z m 42.1543,0.62305 a 216.42857,286.42859 0 0 1 -18.46484,1.22266 216.42857,286.42859 0 0 0 18.46484,-1.22266 z"
         style="opacity:1;fill:#cccccc;fill-opacity:1;fill-rule:nonzero;stroke:none;stroke-width:6;stroke-linecap:round;stroke-linejoin:miter;stroke-miterlimit:4;stroke-dasharray:none;stroke-opacity:1" />
    </g>
    <g
       id="g4250"
       inkscape:export-filename="E:\Projects\kinder\assets\images\shell-bottom-egg.png"
       inkscape:export-xdpi="90"
       inkscape:export-ydpi="90">
      <g
         style="opacity:0"
         id="g4216"
         transform="translate(770.71502,-66.428601)">
        <rect
           style="opacity:1;fill:#afc74d;fill-opacity:1;fill-rule:nonzero;stroke:none;stroke-width:6;stroke-linecap:round;stroke-linejoin:miter;stroke-miterlimit:4;stroke-dasharray:none;stroke-opacity:1"
           id="rect4218"
           width="600"
           height="600"
           x="-682.85718"
           y="183.79077"
           ry="0" />
        <rect
           style="opacity:1;fill:#6c6753;fill-opacity:1;fill-rule:nonzero;stroke:none;stroke-width:6;stroke-linecap:round;stroke-linejoin:miter;stroke-miterlimit:4;stroke-dasharray:none;stroke-opacity:1"
           id="rect4220"
           width="571.42859"
           height="194.28572"
           x="-668.57147"
           y="386.64792" />
      </g>
      <path
         id="path4224"
         d="m 372.85687,380.93443 -64.28516,91.42773 -75.71484,-57.14256 -58.75,45.6953 a 216.42857,286.42859 0 0 0 213.75,242.875 216.42857,286.42859 0 0 0 216.42969,-286.42774 216.42857,286.42859 0 0 0 -0.48243,-18.00585 l -68.08984,77.29102 -65.71484,-92.85742 -65.71289,97.14452 -31.42969,-100 z"
         style="opacity:1;fill:#cccccc;fill-opacity:1;fill-rule:nonzero;stroke:none;stroke-width:6;stroke-linecap:round;stroke-linejoin:miter;stroke-miterlimit:4;stroke-dasharray:none;stroke-opacity:1"
         inkscape:connector-curvature="0" />
    </g>
    <g
       transform="translate(1365.7143,-62.857142)"
       id="g4230">
      <path
         id="path4232"
         d="m -392.85742,446.64872 -64.28516,91.42773 -75.71484,-57.14257 -58.75,45.69531 a 216.42857,286.42859 0 0 0 213.75,242.875 216.42857,286.42859 0 0 0 216.42969,-286.42774 216.42857,286.42859 0 0 0 -0.48243,-18.00586 L -230,542.36161 l -65.71484,-92.85742 -65.71289,97.14453 -31.42969,-100 z"
         style="opacity:1;fill:#cccccc;fill-opacity:1;fill-rule:nonzero;stroke:none;stroke-width:6;stroke-linecap:round;stroke-linejoin:miter;stroke-miterlimit:4;stroke-dasharray:none;stroke-opacity:1"
         inkscape:connector-curvature="0" />
      <path
         style="opacity:1;fill:#cccccc;fill-opacity:1;fill-rule:nonzero;stroke:none;stroke-width:6;stroke-linecap:round;stroke-linejoin:miter;stroke-miterlimit:4;stroke-dasharray:none;stroke-opacity:1"
         d="m -377.85742,196.64872 a 216.42857,286.42859 0 0 0 -216.42774,286.42773 216.42857,286.42859 0 0 0 2.67774,43.55274 l 58.75,-45.69531 75.71484,57.14257 64.28516,-91.42773 31.42969,100 65.71289,-97.14453 65.71484,92.85742 68.08984,-77.29102 A 216.42857,286.42859 0 0 0 -377.85742,196.64872 Z m -213.75,329.98047 a 216.42857,286.42859 0 0 0 4.3125,27.7832 216.42857,286.42859 0 0 1 -4.3125,-27.7832 z m 429.25586,-19.13477 a 216.42857,286.42859 0 0 1 -1.29883,14.16797 216.42857,286.42859 0 0 0 1.29883,-14.16797 z m -2.91992,28.36719 a 216.42857,286.42859 0 0 1 -2.35547,13.88867 216.42857,286.42859 0 0 0 2.35547,-13.88867 z m -421.96875,18.86914 a 216.42857,286.42859 0 0 0 6.3125,26.75391 216.42857,286.42859 0 0 1 -6.3125,-26.75391 z m 416.92187,8.9668 a 216.42857,286.42859 0 0 1 -3.38476,13.48047 216.42857,286.42859 0 0 0 3.38476,-13.48047 z m -410.45117,18.41797 a 216.42857,286.42859 0 0 0 8.1582,25.35156 216.42857,286.42859 0 0 1 -8.1582,-25.35156 z m 403.33398,8.59179 a 216.42857,286.42859 0 0 1 -4.39648,13.00391 216.42857,286.42859 0 0 0 4.39648,-13.00391 z m -394.8164,17.82422 a 216.42857,286.42859 0 0 0 9.79297,23.57227 216.42857,286.42859 0 0 1 -9.79297,-23.57227 z m 385.69726,8.11328 a 216.42857,286.42859 0 0 1 -5.36133,12.3711 216.42857,286.42859 0 0 0 5.36133,-12.3711 z m -375.20703,17.06836 a 216.42857,286.42859 0 0 0 11.20899,21.56055 216.42857,286.42859 0 0 1 -11.20899,-21.56055 z m 364.18555,7.52344 a 216.42857,286.42859 0 0 1 -6.28516,11.62891 216.42857,286.42859 0 0 0 6.28516,-11.62891 z m -351.83594,16.14453 a 216.42857,286.42859 0 0 0 12.35938,19.31836 216.42857,286.42859 0 0 1 -12.35938,-19.31836 z m 338.99219,6.90039 a 216.42857,286.42859 0 0 1 -7.11133,10.71289 216.42857,286.42859 0 0 0 7.11133,-10.71289 z m -324.89844,15.0293 a 216.42857,286.42859 0 0 0 13.23633,16.92383 216.42857,286.42859 0 0 1 -13.23633,-16.92383 z m 310.40234,6.17578 a 216.42857,286.42859 0 0 1 -7.9082,9.75 216.42857,286.42859 0 0 0 7.9082,-9.75 z M -519.625,699.26395 a 216.42857,286.42859 0 0 0 13.82812,14.44336 216.42857,286.42859 0 0 1 -13.82812,-14.44336 z m 278.68164,5.41407 a 216.42857,286.42859 0 0 1 -8.61328,8.66601 216.42857,286.42859 0 0 0 8.61328,-8.66601 z m -261.54102,12.36132 a 216.42857,286.42859 0 0 0 14.1211,11.92969 216.42857,286.42859 0 0 1 -14.1211,-11.92969 z m 244.13477,4.625 a 216.42857,286.42859 0 0 1 -9.21289,7.47657 216.42857,286.42859 0 0 0 9.21289,-7.47657 z m -225.7207,10.78907 a 216.42857,286.42859 0 0 0 14.09375,9.43164 216.42857,286.42859 0 0 1 -14.09375,-9.43164 z m 207.1289,3.80859 a 216.42857,286.42859 0 0 1 -9.74609,6.23047 216.42857,286.42859 0 0 0 9.74609,-6.23047 z m -187.61718,9.08594 a 216.42857,286.42859 0 0 0 13.73828,7.01367 216.42857,286.42859 0 0 1 -13.73828,-7.01367 z m 168.02148,2.97851 a 216.42857,286.42859 0 0 1 -10.1875,4.91993 216.42857,286.42859 0 0 0 10.1875,-4.91993 z m -147.61133,7.25782 a 216.42857,286.42859 0 0 0 13.22071,4.80664 216.42857,286.42859 0 0 1 -13.22071,-4.80664 z m 127.19336,2.16015 a 216.42857,286.42859 0 0 1 -10.49414,3.54688 216.42857,286.42859 0 0 0 10.49414,-3.54688 z m -106.13672,5.29492 a 216.42857,286.42859 0 0 0 12.49805,2.8086 216.42857,286.42859 0 0 1 -12.49805,-2.8086 z m 85.11524,1.37891 a 216.42857,286.42859 0 0 1 -10.73633,2.14649 216.42857,286.42859 0 0 0 10.73633,-2.14649 z m -63.57032,3.24023 a 216.42857,286.42859 0 0 0 11.54493,1.04297 216.42857,286.42859 0 0 1 -11.54493,-1.04297 z m 42.1543,0.62305 a 216.42857,286.42859 0 0 1 -18.46484,1.22266 216.42857,286.42859 0 0 0 18.46484,-1.22266 z"
         id="path4234"
         inkscape:connector-curvature="0" />
    </g>
    <g
       id="g4238"
       transform="translate(1969.2864,-53.571458)">
      <rect
         style="opacity:1;fill:#afc74d;fill-opacity:1;fill-rule:nonzero;stroke:none;stroke-width:6;stroke-linecap:round;stroke-linejoin:miter;stroke-miterlimit:4;stroke-dasharray:none;stroke-opacity:1"
         id="rect4240"
         width="600"
         height="600"
         x="-682.85718"
         y="183.79077"
         ry="0" />
      <rect
         style="opacity:1;fill:#6c6753;fill-opacity:1;fill-rule:nonzero;stroke:none;stroke-width:6;stroke-linecap:round;stroke-linejoin:miter;stroke-miterlimit:4;stroke-dasharray:none;stroke-opacity:1"
         id="rect4242"
         width="571.42859"
         height="194.28572"
         x="-668.57147"
         y="386.64792" />
    </g>
    <g
       id="g4260"
       inkscape:export-filename="E:\Projects\kinder\assets\images\particle-egg.png"
       inkscape:export-xdpi="90"
       inkscape:export-ydpi="90"
       transform="translate(-1153.5942,4.0406102)">
      <rect
         y="872.71277"
         x="747.82501"
         height="200"
         width="200"
         id="rect4256"
         style="opacity:0;fill:#d35f5f;fill-opacity:1;fill-rule:nonzero;stroke:none;stroke-width:6;stroke-linecap:round;stroke-linejoin:miter;stroke-miterlimit:4;stroke-dasharray:none;stroke-opacity:1" />
      <path
         transform="matrix(0.94186649,0.02918596,-0.02918596,0.94186649,77.935452,32.33373)"
         inkscape:transform-center-y="-8.4416858"
         inkscape:transform-center-x="-0.099444018"
         d="m 905.55859,1056.9881 -56.59929,-29.8639 -54.88011,32.9167 10.91219,-63.0576 -48.26455,-42.02226 63.34339,-9.10776 25.05098,-58.88791 28.23618,57.4287 63.7469,5.62752 -45.89247,44.60065 z"
         inkscape:randomized="0"
         inkscape:rounded="0"
         inkscape:flatsided="false"
         sodipodi:arg2="1.5434192"
         sodipodi:arg1="0.9151007"
         sodipodi:r2="45.345753"
         sodipodi:r1="94.865585"
         sodipodi:cy="981.79541"
         sodipodi:cx="847.71802"
         sodipodi:sides="5"
         id="path4258"
         style="opacity:1;fill:#ffcc00;fill-opacity:1;fill-rule:nonzero;stroke:#db8c35;stroke-width:6;stroke-linecap:round;stroke-linejoin:miter;stroke-miterlimit:4;stroke-dasharray:none;stroke-opacity:1"
         sodipodi:type="star" />
    </g>
    <g
       id="g4439"
       inkscape:export-filename="E:\Projects\kinder\assets\images\reward-socks.png"
       inkscape:export-xdpi="90"
       inkscape:export-ydpi="90"
       transform="translate(-1137.4318,-14.142135)">
      <rect
         y="1206.4208"
         x="697.39282"
         height="300"
         width="300"
         id="rect4258"
         style="opacity:0;fill:#000000;fill-opacity:1;fill-rule:nonzero;stroke:none;stroke-width:6;stroke-linecap:round;stroke-linejoin:miter;stroke-miterlimit:4;stroke-dasharray:none;stroke-opacity:1" />
      <g
         transform="matrix(1.1569193,0,0,1.1569193,-728.73484,-742.73164)"
         id="g4389">
        <path
           style="opacity:1;fill:#000000;fill-opacity:1;fill-rule:nonzero;stroke:none;stroke-width:6;stroke-linecap:round;stroke-linejoin:miter;stroke-miterlimit:4;stroke-dasharray:none;stroke-opacity:1"
           d="m 1313.394,1693.4166 c 0,36.2767 0,72.5533 0,108.83 -20.0498,15.6229 -42.283,28.6791 -60.7344,46.2286 -14.1256,17.6956 -7.0572,47.6161 14.1016,56.3535 14.9129,6.9974 33.1436,2.0807 44.664,-9.0667 10.6433,-7.6514 22.0551,-16.276 32.084,-23.4685 -9.4498,10.0678 -14.2958,25.0121 -9.3027,38.332 5.1389,16.7495 23.0094,28.4983 40.4459,25.4096 13.9181,-1.9781 24.4249,-12.3735 32.4017,-23.1771 17.4526,-19.9345 36.2416,-38.7946 52.6797,-59.5606 6.7322,-11.9272 4.0257,-26.2808 -0.3163,-38.4883 -7.9336,-37.6836 -15.8671,-75.3672 -23.8009,-113.0507 -15.9602,3.3602 -31.9205,6.72 -47.8808,10.08 0,-6.8073 0,-13.6145 0,-20.4218 -24.7806,0 -49.5612,0 -74.3418,0 l 0,1 0,1 z"
           id="circle4280"
           inkscape:connector-curvature="0" />
        <g
           id="g4205"
           transform="matrix(0.21391901,0,0,0.21391901,977.12209,1416.0655)">
          <circle
             style="opacity:1;fill:#a05a2c;fill-opacity:1;fill-rule:nonzero;stroke:none;stroke-width:6;stroke-linecap:round;stroke-linejoin:miter;stroke-miterlimit:4;stroke-dasharray:none;stroke-opacity:1"
             id="circle4201"
             cx="1426.7511"
             cy="2126.7175"
             r="145.71428" />
          <circle
             r="145.71428"
             cy="1892.3622"
             cx="1749.9999"
             id="path4199"
             style="opacity:1;fill:#a05a2c;fill-opacity:1;fill-rule:nonzero;stroke:none;stroke-width:6;stroke-linecap:round;stroke-linejoin:miter;stroke-miterlimit:4;stroke-dasharray:none;stroke-opacity:1" />
          <rect
             y="1315.2194"
             x="1600"
             height="548.57141"
             width="291.42856"
             id="rect4189"
             style="opacity:1;fill:#ffcc00;fill-opacity:1;fill-rule:nonzero;stroke:none;stroke-width:6;stroke-linecap:round;stroke-linejoin:miter;stroke-miterlimit:4;stroke-dasharray:none;stroke-opacity:1" />
          <rect
             transform="matrix(0.5901234,0.80731306,-0.80731306,0.5901234,0,0)"
             style="opacity:1;fill:#ffcc00;fill-opacity:1;fill-rule:nonzero;stroke:none;stroke-width:6;stroke-linecap:round;stroke-linejoin:miter;stroke-miterlimit:4;stroke-dasharray:none;stroke-opacity:1"
             id="rect4195"
             width="291.42856"
             height="371.42856"
             x="2412.9731"
             y="-276.03354" />
          <rect
             y="1373.5907"
             x="1600.1019"
             height="46.467018"
             width="290.92392"
             id="rect4203"
             style="opacity:1;fill:#a05a2c;fill-opacity:1;fill-rule:nonzero;stroke:none;stroke-width:6;stroke-linecap:round;stroke-linejoin:miter;stroke-miterlimit:4;stroke-dasharray:none;stroke-opacity:1" />
        </g>
        <path
           style="opacity:0.3;fill:#000000;fill-opacity:1;fill-rule:nonzero;stroke:none;stroke-width:6;stroke-linecap:round;stroke-linejoin:miter;stroke-miterlimit:4;stroke-dasharray:none;stroke-opacity:1"
           d="m 1319.3924,1697.4159 0,107.8407 -54.1349,39.5708 0.057,0.079 a 31.171055,31.171055 0 0 0 -14.1546,26.1048 31.171055,31.171055 0 0 0 31.1712,31.1712 31.171055,31.171055 0 0 0 19.7036,-7.0414 l 0.012,0.017 63.7634,-46.6093 a 31.171055,31.171055 0 0 0 16.8411,-27.6703 31.171055,31.171055 0 0 0 -0.9171,-7.3627 l 0,-116.0991 -62.3419,0 z"
           id="circle4215"
           inkscape:connector-curvature="0" />
        <g
           transform="matrix(0.20933006,-0.04407116,0.04407116,0.20933006,858.28536,1504.4438)"
           id="g4240">
          <circle
             style="opacity:1;fill:#a05a2c;fill-opacity:1;fill-rule:nonzero;stroke:none;stroke-width:6;stroke-linecap:round;stroke-linejoin:miter;stroke-miterlimit:4;stroke-dasharray:none;stroke-opacity:1"
             id="circle4242"
             cx="1958.1797"
             cy="2298.146"
             r="145.71428" />
          <circle
             r="145.71428"
             cy="2063.7908"
             cx="2281.4285"
             id="circle4244"
             style="opacity:1;fill:#a05a2c;fill-opacity:1;fill-rule:nonzero;stroke:none;stroke-width:6;stroke-linecap:round;stroke-linejoin:miter;stroke-miterlimit:4;stroke-dasharray:none;stroke-opacity:1" />
          <rect
             y="1486.6479"
             x="2131.4285"
             height="548.57141"
             width="291.42856"
             id="rect4246"
             style="opacity:1;fill:#ffcc00;fill-opacity:1;fill-rule:nonzero;stroke:none;stroke-width:6;stroke-linecap:round;stroke-linejoin:miter;stroke-miterlimit:4;stroke-dasharray:none;stroke-opacity:1" />
          <rect
             transform="matrix(0.5901234,0.80731306,-0.80731306,0.5901234,0,0)"
             style="opacity:1;fill:#ffcc00;fill-opacity:1;fill-rule:nonzero;stroke:none;stroke-width:6;stroke-linecap:round;stroke-linejoin:miter;stroke-miterlimit:4;stroke-dasharray:none;stroke-opacity:1"
             id="rect4248"
             width="291.42856"
             height="371.42856"
             x="2864.978"
             y="-603.89874" />
          <rect
             y="1545.0193"
             x="2131.5305"
             height="46.467018"
             width="290.92392"
             id="rect4250"
             style="opacity:1;fill:#a05a2c;fill-opacity:1;fill-rule:nonzero;stroke:none;stroke-width:6;stroke-linecap:round;stroke-linejoin:miter;stroke-miterlimit:4;stroke-dasharray:none;stroke-opacity:1" />
        </g>
      </g>
    </g>
    <rect
       y="865.81824"
       x="1148.2344"
       height="300"
       width="300"
       id="rect4459"
       style="opacity:0.44800002;fill:#000000;fill-opacity:1;fill-rule:nonzero;stroke:none;stroke-width:6;stroke-linecap:round;stroke-linejoin:miter;stroke-miterlimit:4;stroke-dasharray:none;stroke-opacity:1" />
    <g
       id="g4625"
       inkscape:export-filename="E:\Projects\kinder\assets\images\reward-flower.png"
       inkscape:export-xdpi="90"
       inkscape:export-ydpi="90"
       transform="translate(-448.50773,-34.345184)">
      <rect
         y="1239.5747"
         x="424.96518"
         height="300"
         width="300"
         id="rect4212"
         style="opacity:0;fill:#000000;fill-opacity:1;fill-rule:nonzero;stroke:none;stroke-width:6;stroke-linecap:round;stroke-linejoin:miter;stroke-miterlimit:4;stroke-dasharray:none;stroke-opacity:1" />
      <g
         transform="matrix(1.0529807,0,0,1.0529807,205.55835,-405.05836)"
         id="g4606">
        <path
           style="opacity:1;fill:#000000;fill-opacity:1;fill-rule:nonzero;stroke:none;stroke-width:12;stroke-linecap:round;stroke-linejoin:miter;stroke-miterlimit:4;stroke-dasharray:none;stroke-opacity:0.99607843"
           d="m 345.47461,1569.5508 c -10.49449,0.3458 -20.49563,6.7859 -25.28906,16.1054 -17.47291,-9.7274 -42.65677,3.3871 -43.51953,23.7266 -0.36091,3.8939 0.13093,7.8321 1.14062,11.5977 -18.8141,7.1765 -24.62392,35.4071 -9.39844,48.707 -11.89865,16.2883 -0.40948,42.9912 19.71094,45.5684 2.64518,0.8501 7.30664,-1.3172 7.36133,2.7285 5.03258,15.1272 23.59173,24.067 38.53711,18.4551 -0.3896,5.4594 0.19532,11.9622 -0.0996,16.7265 -9.8465,-11.9142 -25.41768,-16.0721 -40.05859,-18.2734 -14.62054,-2.4431 -29.48235,-2.8303 -44.2754,-2.9375 9.15463,22.8152 16.84518,48.4321 36.52735,64.6601 14.05663,9.9487 31.63042,12.4093 48.00976,15.7852 0.0232,6.957 -0.65349,13.8766 -0.0586,20.7812 0.62232,5.0873 6.30251,7.0406 10.65625,5.4161 5.35257,0.4676 14.54518,2.2324 16.53125,-4.7032 0.56143,-2.2001 -1.56622,-5.5222 2.29688,-5.2754 19.38992,-5.8908 41.84767,-11.1522 54.14453,-28.7695 10.61786,-16.285 15.71303,-35.7653 19.16992,-54.5039 -2.24672,-6.2574 -9.7454,-3.2563 -14.38281,-2.6699 -21.23005,4.0762 -45.19498,7.2694 -60.89454,23.6738 -0.68648,-4.1955 -0.0955,-12.0404 -0.29296,-17.6328 0.0355,-3.1943 -1.19423,-7.49 3.17968,-5.9707 14.48751,0.4124 28.53753,-10.9714 30.54688,-25.4336 16.8378,3.5844 34.27567,-10.3687 35.05859,-27.4668 0.52667,-6.5853 -1.13896,-13.4487 -5.14844,-18.7598 16.6286,-11.5412 15.28424,-40.4946 -3.04687,-49.7402 -1.87939,-1.8053 -7.00305,-1.405 -5.07227,-4.8223 4.04622,-18.4717 -13.00729,-38.4568 -32.15625,-35.6425 -4.20615,0.3939 -8.32383,1.6953 -11.99609,3.7832 -5.34616,-9.5279 -16.24579,-15.6675 -27.18164,-15.1133 z m 30.99414,121.0801 c 2.13953,2.4783 -2.42278,0.5519 0,0 z"
           id="rect4554"
           inkscape:connector-curvature="0" />
        <g
           id="g4535"
           transform="matrix(0.58131063,0,0,0.58131063,165.03501,640.32866)">
          <rect
             y="1794.8242"
             x="301.02548"
             height="256.57874"
             width="26.263966"
             id="rect4236"
             style="opacity:1;fill:#44aa00;fill-opacity:1;fill-rule:nonzero;stroke:none;stroke-width:12;stroke-linecap:round;stroke-linejoin:miter;stroke-miterlimit:4;stroke-dasharray:none;stroke-opacity:0.99607843" />
          <path
             inkscape:transform-center-y="-13.707796"
             inkscape:transform-center-x="29.011921"
             sodipodi:nodetypes="cscsc"
             inkscape:connector-curvature="0"
             id="rect4238"
             d="m 160.448,1888.3711 c 0,0 81.02717,-0.3075 111.37505,22.3355 29.99725,22.3813 52.51448,99.2424 52.51448,99.2424 0,0 -81.26511,-6.604 -111.80288,-30.222 -27.72854,-21.4452 -52.08665,-91.3559 -52.08665,-91.3559 z"
             style="opacity:1;fill:#44aa00;fill-opacity:1;fill-rule:nonzero;stroke:none;stroke-width:12;stroke-linecap:round;stroke-linejoin:miter;stroke-miterlimit:4;stroke-dasharray:none;stroke-opacity:0.99607843" />
          <path
             style="opacity:1;fill:#44aa00;fill-opacity:1;fill-rule:nonzero;stroke:none;stroke-width:12;stroke-linecap:round;stroke-linejoin:miter;stroke-miterlimit:4;stroke-dasharray:none;stroke-opacity:0.99607843"
             d="m 456.93264,1904.7335 c 0,0 -79.91538,9.014 -106.63725,34.2981 -26.41312,24.9917 -37.76938,101.568 -37.76938,101.568 0,0 79.17521,-15.6947 105.94674,-41.9391 24.30875,-23.8298 38.45989,-93.927 38.45989,-93.927 z"
             id="path4241"
             inkscape:connector-curvature="0"
             sodipodi:nodetypes="cscsc"
             inkscape:transform-center-x="-26.665101"
             inkscape:transform-center-y="-16.528999" />
          <path
             sodipodi:nodetypes="csc"
             inkscape:connector-curvature="0"
             id="path4243"
             d="m 215.10857,1919.9162 c 0,0 6.10279,1.0406 26.46843,18.7544 24.973,21.7213 31.39021,38.0924 31.39021,38.0924"
             style="fill:none;fill-opacity:1;fill-rule:evenodd;stroke:#2e7b27;stroke-width:7.72626209;stroke-linecap:round;stroke-linejoin:round;stroke-miterlimit:4;stroke-dasharray:none;stroke-opacity:1" />
          <path
             style="fill:none;fill-opacity:1;fill-rule:evenodd;stroke:#2e7b27;stroke-width:5.99901676;stroke-linecap:round;stroke-linejoin:round;stroke-miterlimit:4;stroke-dasharray:none;stroke-opacity:1"
             d="m 357.79213,1986.0006 c 0,0 1.10798,-4.7072 15.78113,-19.756 17.99274,-18.4535 30.93166,-22.6957 30.93166,-22.6957"
             id="path4533"
             inkscape:connector-curvature="0"
             sodipodi:nodetypes="csc" />
          <circle
             r="41.07143"
             cy="1672.005"
             cx="243.21428"
             id="path4218"
             style="opacity:1;fill:#ffdd55;fill-opacity:1;fill-rule:nonzero;stroke:none;stroke-width:12;stroke-linecap:round;stroke-linejoin:miter;stroke-miterlimit:4;stroke-dasharray:none;stroke-opacity:0.99607843" />
          <circle
             style="opacity:1;fill:#ffdd55;fill-opacity:1;fill-rule:nonzero;stroke:none;stroke-width:12;stroke-linecap:round;stroke-linejoin:miter;stroke-miterlimit:4;stroke-dasharray:none;stroke-opacity:0.99607843"
             id="circle4220"
             cx="312.49994"
             cy="1649.8623"
             r="41.07143" />
          <circle
             style="opacity:1;fill:#ffdd55;fill-opacity:1;fill-rule:nonzero;stroke:none;stroke-width:12;stroke-linecap:round;stroke-linejoin:miter;stroke-miterlimit:4;stroke-dasharray:none;stroke-opacity:0.99607843"
             id="circle4222"
             cx="214.07143"
             cy="1734.4336"
             r="41.07143" />
          <circle
             r="41.07143"
             cy="1669.1479"
             cx="382.49997"
             id="circle4224"
             style="opacity:1;fill:#ffdd55;fill-opacity:1;fill-rule:nonzero;stroke:none;stroke-width:12;stroke-linecap:round;stroke-linejoin:miter;stroke-miterlimit:4;stroke-dasharray:none;stroke-opacity:0.99607843" />
          <circle
             style="opacity:1;fill:#ffdd55;fill-opacity:1;fill-rule:nonzero;stroke:none;stroke-width:12;stroke-linecap:round;stroke-linejoin:miter;stroke-miterlimit:4;stroke-dasharray:none;stroke-opacity:0.99607843"
             id="circle4226"
             cx="416.07138"
             cy="1732.0051"
             r="41.07143" />
          <circle
             r="41.07143"
             cy="1802.0051"
             cx="404.64279"
             id="circle4228"
             style="opacity:1;fill:#ffdd55;fill-opacity:1;fill-rule:nonzero;stroke:none;stroke-width:12;stroke-linecap:round;stroke-linejoin:miter;stroke-miterlimit:4;stroke-dasharray:none;stroke-opacity:0.99607843" />
          <circle
             style="opacity:1;fill:#ffdd55;fill-opacity:1;fill-rule:nonzero;stroke:none;stroke-width:12;stroke-linecap:round;stroke-linejoin:miter;stroke-miterlimit:4;stroke-dasharray:none;stroke-opacity:0.99607843"
             id="circle4230"
             cx="344.64279"
             cy="1844.8623"
             r="41.07143" />
          <circle
             r="41.07143"
             cy="1837.0051"
             cx="273.21423"
             id="circle4232"
             style="opacity:1;fill:#ffdd55;fill-opacity:1;fill-rule:nonzero;stroke:none;stroke-width:12;stroke-linecap:round;stroke-linejoin:miter;stroke-miterlimit:4;stroke-dasharray:none;stroke-opacity:0.99607843" />
          <circle
             style="opacity:1;fill:#ffdd55;fill-opacity:1;fill-rule:nonzero;stroke:none;stroke-width:12;stroke-linecap:round;stroke-linejoin:miter;stroke-miterlimit:4;stroke-dasharray:none;stroke-opacity:0.99607843"
             id="circle4234"
             cx="220.92851"
             cy="1798.4337"
             r="41.07143" />
          <circle
             r="76.155464"
             cy="1747.3622"
             cx="316.42859"
             id="path4216"
             style="opacity:1;fill:#806600;fill-opacity:1;fill-rule:nonzero;stroke:#d8b93f;stroke-width:12;stroke-linecap:round;stroke-linejoin:miter;stroke-miterlimit:4;stroke-dasharray:none;stroke-opacity:0.99607843" />
        </g>
      </g>
    </g>
    <g
       id="g4687"
       inkscape:export-filename="E:\Projects\kinder\assets\images\reward-heart.png"
       inkscape:export-xdpi="90"
       inkscape:export-ydpi="90"
       transform="translate(357.594,8.0812203)">
      <rect
         y="1211.2904"
         x="782.55908"
         height="300"
         width="300"
         id="rect4671"
         style="opacity:0;fill:#000000;fill-opacity:1;fill-rule:nonzero;stroke:none;stroke-width:6;stroke-linecap:round;stroke-linejoin:miter;stroke-miterlimit:4;stroke-dasharray:none;stroke-opacity:1" />
      <g
         transform="matrix(1.0699244,0,0,1.0699244,-70.123346,-102.60012)"
         id="g4683">
        <path
           style="opacity:1;fill:#2b1100;fill-opacity:1;fill-rule:nonzero;stroke:none;stroke-width:8;stroke-linecap:round;stroke-linejoin:round;stroke-miterlimit:4;stroke-dasharray:none;stroke-opacity:1"
           d="m 995.04883,1252.666 c -23.18546,0.2466 -45.80388,13.0905 -57.875,32.8887 -17.32742,-29.5652 -58.61491,-41.9044 -89.00977,-25.5801 -27.15654,13.5104 -43.7527,46.4104 -35.63086,76.1289 6.02766,25.8873 25.61261,45.5336 45.13756,62.2546 28.07827,26.0532 51.21663,56.8795 76.84877,85.095 8.39467,2.2815 11.49744,-7.6174 16.31792,-12.3007 26.67023,-32.1047 54.26905,-63.5172 85.59355,-91.1805 19.5407,-19.8382 33.1154,-49.2466 25.0349,-77.2312 -7.9194,-28.8637 -36.3094,-50.8163 -66.41707,-50.0747 z"
           id="path4675"
           inkscape:connector-curvature="0" />
        <path
           style="opacity:1;fill:#ff0027;fill-opacity:1;fill-rule:nonzero;stroke:none;stroke-width:8;stroke-linecap:round;stroke-linejoin:round;stroke-miterlimit:4;stroke-dasharray:none;stroke-opacity:1"
           d="m 878.83034,1258.7944 c -34.41227,2e-4 -62.30888,27.8968 -62.30905,62.3091 2.25512,37.8976 27.49351,56.1572 51.33867,78.7523 23.05907,21.8502 66.47516,75.1137 69.3381,78.6329 2.86295,-3.5192 46.27899,-56.7827 69.33804,-78.6329 23.8451,-22.5951 49.0836,-40.8547 51.3387,-78.7523 -2e-4,-34.4123 -27.8968,-62.3089 -62.30906,-62.3091 -26.1004,0.028 -49.35302,16.3115 -58.36768,40.6856 -9.01466,-24.3741 -32.26728,-40.6571 -58.36772,-40.6856 z"
           id="path4646"
           inkscape:connector-curvature="0" />
      </g>
    </g>
    <rect
       style="opacity:0.44800002;fill:#000000;fill-opacity:1;fill-rule:nonzero;stroke:none;stroke-width:6;stroke-linecap:round;stroke-linejoin:miter;stroke-miterlimit:4;stroke-dasharray:none;stroke-opacity:1"
       id="rect4673"
       width="300"
       height="300"
       x="744.17334"
       y="1219.3717" />
    <path
       style="opacity:1;fill:#aaffee;fill-opacity:1;fill-rule:nonzero;stroke:none;stroke-width:8;stroke-linecap:round;stroke-linejoin:round;stroke-miterlimit:4;stroke-dasharray:none;stroke-opacity:1"
       d="m 783.87838,1682.6973 144.45184,0 50.50763,37.3757 -125.25893,105.0559 -125.25893,-105.0559 z"
       id="rect4693"
       inkscape:connector-curvature="0"
       sodipodi:nodetypes="cccccc" />
    <path
       style="opacity:1;fill:#005544;fill-opacity:1;fill-rule:nonzero;stroke:none;stroke-width:8;stroke-linecap:round;stroke-linejoin:round;stroke-miterlimit:4;stroke-dasharray:none;stroke-opacity:1"
       d="m 784.75283,1682.6973 71.95361,0 -35.97681,40.4149 z"
       id="rect4696"
       inkscape:connector-curvature="0"
       sodipodi:nodetypes="cccc" />
    <path
       sodipodi:nodetypes="cccc"
       inkscape:connector-curvature="0"
       id="path4701"
       d="m 856.89569,1682.6973 71.95361,0 -35.97681,40.4149 z"
       style="opacity:1;fill:#d5fff6;fill-opacity:1;fill-rule:nonzero;stroke:none;stroke-width:8;stroke-linecap:round;stroke-linejoin:round;stroke-miterlimit:4;stroke-dasharray:none;stroke-opacity:1" />
  </g>
</svg>
