<?xml version="1.0" encoding="UTF-8" standalone="no"?>
<!-- Created with Inkscape (http://www.inkscape.org/) -->

<svg
   xmlns:dc="http://purl.org/dc/elements/1.1/"
   xmlns:cc="http://creativecommons.org/ns#"
   xmlns:rdf="http://www.w3.org/1999/02/22-rdf-syntax-ns#"
   xmlns:svg="http://www.w3.org/2000/svg"
   xmlns="http://www.w3.org/2000/svg"
   xmlns:sodipodi="http://sodipodi.sourceforge.net/DTD/sodipodi-0.dtd"
   xmlns:inkscape="http://www.inkscape.org/namespaces/inkscape"
   width="210mm"
   height="297mm"
   viewBox="0 0 744.09448819 1052.3622047"
   id="svg2"
   version="1.1"
   inkscape:version="0.91 r13725"
   sodipodi:docname="images.svg">
  <defs
     id="defs4" />
  <sodipodi:namedview
     id="base"
     pagecolor="#ffffff"
     bordercolor="#666666"
     borderopacity="1.0"
     inkscape:pageopacity="0.0"
     inkscape:pageshadow="2"
     inkscape:zoom="0.7"
     inkscape:cx="230.37225"
     inkscape:cy="466.93"
     inkscape:document-units="px"
     inkscape:current-layer="layer1"
     showgrid="false"
     inkscape:window-width="1920"
     inkscape:window-height="1017"
     inkscape:window-x="-8"
     inkscape:window-y="-8"
     inkscape:window-maximized="1" />
  <metadata
     id="metadata7">
    <rdf:RDF>
      <cc:Work
         rdf:about="">
        <dc:format>image/svg+xml</dc:format>
        <dc:type
           rdf:resource="http://purl.org/dc/dcmitype/StillImage" />
        <dc:title></dc:title>
      </cc:Work>
    </rdf:RDF>
  </metadata>
  <g
     inkscape:label="Layer 1"
     inkscape:groupmode="layer"
     id="layer1">
    <g
       id="g4212"
       transform="translate(26.429307,-77.857172)">
      <rect
         style="opacity:1;fill:#afc74d;fill-opacity:1;fill-rule:nonzero;stroke:none;stroke-width:6;stroke-linecap:round;stroke-linejoin:miter;stroke-miterlimit:4;stroke-dasharray:none;stroke-opacity:1"
         id="rect4168"
         width="600"
         height="600"
         x="-682.85718"
         y="183.79077"
         ry="0" />
      <rect
         style="opacity:1;fill:#6c6753;fill-opacity:1;fill-rule:nonzero;stroke:none;stroke-width:6;stroke-linecap:round;stroke-linejoin:miter;stroke-miterlimit:4;stroke-dasharray:none;stroke-opacity:1"
         id="rect4170"
         width="571.42859"
         height="194.28572"
         x="-668.57147"
         y="386.64792" />
    </g>
    <path
       style="opacity:1;fill:#cccccc;fill-opacity:1;fill-rule:nonzero;stroke:none;stroke-width:6;stroke-linecap:round;stroke-linejoin:miter;stroke-miterlimit:4;stroke-dasharray:none;stroke-opacity:1"
       d="m -356.42885,119.50586 a 216.42857,286.42859 0 0 0 -216.42774,286.42773 216.42857,286.42859 0 0 0 2.67774,43.55274 l 58.75,-45.69531 75.71484,57.14257 64.28516,-91.42773 31.42969,100 65.71289,-97.14453 65.71484,92.85742 68.08984,-77.29102 A 216.42857,286.42859 0 0 0 -356.42885,119.50586 Z m -213.75,329.98047 a 216.42857,286.42859 0 0 0 4.3125,27.7832 216.42857,286.42859 0 0 1 -4.3125,-27.7832 z m 429.25586,-19.13477 a 216.42857,286.42859 0 0 1 -1.29883,14.16797 216.42857,286.42859 0 0 0 1.29883,-14.16797 z m -2.91992,28.36719 a 216.42857,286.42859 0 0 1 -2.35547,13.88867 216.42857,286.42859 0 0 0 2.35547,-13.88867 z m -421.96875,18.86914 a 216.42857,286.42859 0 0 0 6.3125,26.75391 216.42857,286.42859 0 0 1 -6.3125,-26.75391 z m 416.92187,8.9668 a 216.42857,286.42859 0 0 1 -3.38476,13.48047 216.42857,286.42859 0 0 0 3.38476,-13.48047 z m -410.45117,18.41797 a 216.42857,286.42859 0 0 0 8.1582,25.35156 216.42857,286.42859 0 0 1 -8.1582,-25.35156 z m 403.33398,8.59179 a 216.42857,286.42859 0 0 1 -4.39648,13.00391 216.42857,286.42859 0 0 0 4.39648,-13.00391 z m -394.8164,17.82422 a 216.42857,286.42859 0 0 0 9.79297,23.57227 216.42857,286.42859 0 0 1 -9.79297,-23.57227 z m 385.69726,8.11328 a 216.42857,286.42859 0 0 1 -5.36133,12.3711 216.42857,286.42859 0 0 0 5.36133,-12.3711 z m -375.20703,17.06836 a 216.42857,286.42859 0 0 0 11.20899,21.56055 216.42857,286.42859 0 0 1 -11.20899,-21.56055 z m 364.18555,7.52344 a 216.42857,286.42859 0 0 1 -6.28516,11.62891 216.42857,286.42859 0 0 0 6.28516,-11.62891 z m -351.83594,16.14453 a 216.42857,286.42859 0 0 0 12.35938,19.31836 216.42857,286.42859 0 0 1 -12.35938,-19.31836 z m 338.99219,6.90039 a 216.42857,286.42859 0 0 1 -7.11133,10.71289 216.42857,286.42859 0 0 0 7.11133,-10.71289 z m -324.89844,15.0293 a 216.42857,286.42859 0 0 0 13.23633,16.92383 216.42857,286.42859 0 0 1 -13.23633,-16.92383 z m 310.40234,6.17578 a 216.42857,286.42859 0 0 1 -7.9082,9.75 216.42857,286.42859 0 0 0 7.9082,-9.75 z m -294.70898,13.77734 a 216.42857,286.42859 0 0 0 13.82812,14.44336 216.42857,286.42859 0 0 1 -13.82812,-14.44336 z m 278.68164,5.41407 a 216.42857,286.42859 0 0 1 -8.61328,8.66601 216.42857,286.42859 0 0 0 8.61328,-8.66601 z m -261.54102,12.36132 a 216.42857,286.42859 0 0 0 14.1211,11.92969 216.42857,286.42859 0 0 1 -14.1211,-11.92969 z m 244.13477,4.625 a 216.42857,286.42859 0 0 1 -9.21289,7.47657 216.42857,286.42859 0 0 0 9.21289,-7.47657 z m -225.7207,10.78907 a 216.42857,286.42859 0 0 0 14.09375,9.43164 216.42857,286.42859 0 0 1 -14.09375,-9.43164 z m 207.1289,3.80859 a 216.42857,286.42859 0 0 1 -9.74609,6.23047 216.42857,286.42859 0 0 0 9.74609,-6.23047 z m -187.61718,9.08594 a 216.42857,286.42859 0 0 0 13.73828,7.01367 216.42857,286.42859 0 0 1 -13.73828,-7.01367 z m 168.02148,2.97851 a 216.42857,286.42859 0 0 1 -10.1875,4.91993 216.42857,286.42859 0 0 0 10.1875,-4.91993 z m -147.61133,7.25782 a 216.42857,286.42859 0 0 0 13.22071,4.80664 216.42857,286.42859 0 0 1 -13.22071,-4.80664 z m 127.19336,2.16015 a 216.42857,286.42859 0 0 1 -10.49414,3.54688 216.42857,286.42859 0 0 0 10.49414,-3.54688 z m -106.13672,5.29492 a 216.42857,286.42859 0 0 0 12.49805,2.8086 216.42857,286.42859 0 0 1 -12.49805,-2.8086 z m 85.11524,1.37891 a 216.42857,286.42859 0 0 1 -10.73633,2.14649 216.42857,286.42859 0 0 0 10.73633,-2.14649 z m -63.57032,3.24023 a 216.42857,286.42859 0 0 0 11.54493,1.04297 216.42857,286.42859 0 0 1 -11.54493,-1.04297 z m 42.1543,0.62305 a 216.42857,286.42859 0 0 1 -18.46484,1.22266 216.42857,286.42859 0 0 0 18.46484,-1.22266 z"
       id="path4146"
       inkscape:connector-curvature="0" />
    <g
       transform="translate(770.71502,-66.428601)"
       id="g4216">
      <rect
         ry="0"
         y="183.79077"
         x="-682.85718"
         height="600"
         width="600"
         id="rect4218"
         style="opacity:1;fill:#afc74d;fill-opacity:1;fill-rule:nonzero;stroke:none;stroke-width:6;stroke-linecap:round;stroke-linejoin:miter;stroke-miterlimit:4;stroke-dasharray:none;stroke-opacity:1" />
      <rect
         y="386.64792"
         x="-668.57147"
         height="194.28572"
         width="571.42859"
         id="rect4220"
         style="opacity:1;fill:#6c6753;fill-opacity:1;fill-rule:nonzero;stroke:none;stroke-width:6;stroke-linecap:round;stroke-linejoin:miter;stroke-miterlimit:4;stroke-dasharray:none;stroke-opacity:1" />
    </g>
    <path
       inkscape:connector-curvature="0"
       style="opacity:1;fill:#cccccc;fill-opacity:1;fill-rule:nonzero;stroke:none;stroke-width:6;stroke-linecap:round;stroke-linejoin:miter;stroke-miterlimit:4;stroke-dasharray:none;stroke-opacity:1"
       d="m 372.85687,380.93443 -64.28516,91.42773 -75.71484,-57.14256 -58.75,45.6953 a 216.42857,286.42859 0 0 0 213.75,242.875 216.42857,286.42859 0 0 0 216.42969,-286.42774 216.42857,286.42859 0 0 0 -0.48243,-18.00585 l -68.08984,77.29102 -65.71484,-92.85742 -65.71289,97.14452 -31.42969,-100 z"
       id="path4224" />
    <g
       transform="translate(1365.7143,-62.857142)"
       id="g4230">
      <path
         id="path4232"
         d="m -392.85742,446.64872 -64.28516,91.42773 -75.71484,-57.14257 -58.75,45.69531 a 216.42857,286.42859 0 0 0 213.75,242.875 216.42857,286.42859 0 0 0 216.42969,-286.42774 216.42857,286.42859 0 0 0 -0.48243,-18.00586 L -230,542.36161 l -65.71484,-92.85742 -65.71289,97.14453 -31.42969,-100 z"
         style="opacity:1;fill:#cccccc;fill-opacity:1;fill-rule:nonzero;stroke:none;stroke-width:6;stroke-linecap:round;stroke-linejoin:miter;stroke-miterlimit:4;stroke-dasharray:none;stroke-opacity:1"
         inkscape:connector-curvature="0" />
      <path
         style="opacity:1;fill:#cccccc;fill-opacity:1;fill-rule:nonzero;stroke:none;stroke-width:6;stroke-linecap:round;stroke-linejoin:miter;stroke-miterlimit:4;stroke-dasharray:none;stroke-opacity:1"
         d="m -377.85742,196.64872 a 216.42857,286.42859 0 0 0 -216.42774,286.42773 216.42857,286.42859 0 0 0 2.67774,43.55274 l 58.75,-45.69531 75.71484,57.14257 64.28516,-91.42773 31.42969,100 65.71289,-97.14453 65.71484,92.85742 68.08984,-77.29102 A 216.42857,286.42859 0 0 0 -377.85742,196.64872 Z m -213.75,329.98047 a 216.42857,286.42859 0 0 0 4.3125,27.7832 216.42857,286.42859 0 0 1 -4.3125,-27.7832 z m 429.25586,-19.13477 a 216.42857,286.42859 0 0 1 -1.29883,14.16797 216.42857,286.42859 0 0 0 1.29883,-14.16797 z m -2.91992,28.36719 a 216.42857,286.42859 0 0 1 -2.35547,13.88867 216.42857,286.42859 0 0 0 2.35547,-13.88867 z m -421.96875,18.86914 a 216.42857,286.42859 0 0 0 6.3125,26.75391 216.42857,286.42859 0 0 1 -6.3125,-26.75391 z m 416.92187,8.9668 a 216.42857,286.42859 0 0 1 -3.38476,13.48047 216.42857,286.42859 0 0 0 3.38476,-13.48047 z m -410.45117,18.41797 a 216.42857,286.42859 0 0 0 8.1582,25.35156 216.42857,286.42859 0 0 1 -8.1582,-25.35156 z m 403.33398,8.59179 a 216.42857,286.42859 0 0 1 -4.39648,13.00391 216.42857,286.42859 0 0 0 4.39648,-13.00391 z m -394.8164,17.82422 a 216.42857,286.42859 0 0 0 9.79297,23.57227 216.42857,286.42859 0 0 1 -9.79297,-23.57227 z m 385.69726,8.11328 a 216.42857,286.42859 0 0 1 -5.36133,12.3711 216.42857,286.42859 0 0 0 5.36133,-12.3711 z m -375.20703,17.06836 a 216.42857,286.42859 0 0 0 11.20899,21.56055 216.42857,286.42859 0 0 1 -11.20899,-21.56055 z m 364.18555,7.52344 a 216.42857,286.42859 0 0 1 -6.28516,11.62891 216.42857,286.42859 0 0 0 6.28516,-11.62891 z m -351.83594,16.14453 a 216.42857,286.42859 0 0 0 12.35938,19.31836 216.42857,286.42859 0 0 1 -12.35938,-19.31836 z m 338.99219,6.90039 a 216.42857,286.42859 0 0 1 -7.11133,10.71289 216.42857,286.42859 0 0 0 7.11133,-10.71289 z m -324.89844,15.0293 a 216.42857,286.42859 0 0 0 13.23633,16.92383 216.42857,286.42859 0 0 1 -13.23633,-16.92383 z m 310.40234,6.17578 a 216.42857,286.42859 0 0 1 -7.9082,9.75 216.42857,286.42859 0 0 0 7.9082,-9.75 z M -519.625,699.26395 a 216.42857,286.42859 0 0 0 13.82812,14.44336 216.42857,286.42859 0 0 1 -13.82812,-14.44336 z m 278.68164,5.41407 a 216.42857,286.42859 0 0 1 -8.61328,8.66601 216.42857,286.42859 0 0 0 8.61328,-8.66601 z m -261.54102,12.36132 a 216.42857,286.42859 0 0 0 14.1211,11.92969 216.42857,286.42859 0 0 1 -14.1211,-11.92969 z m 244.13477,4.625 a 216.42857,286.42859 0 0 1 -9.21289,7.47657 216.42857,286.42859 0 0 0 9.21289,-7.47657 z m -225.7207,10.78907 a 216.42857,286.42859 0 0 0 14.09375,9.43164 216.42857,286.42859 0 0 1 -14.09375,-9.43164 z m 207.1289,3.80859 a 216.42857,286.42859 0 0 1 -9.74609,6.23047 216.42857,286.42859 0 0 0 9.74609,-6.23047 z m -187.61718,9.08594 a 216.42857,286.42859 0 0 0 13.73828,7.01367 216.42857,286.42859 0 0 1 -13.73828,-7.01367 z m 168.02148,2.97851 a 216.42857,286.42859 0 0 1 -10.1875,4.91993 216.42857,286.42859 0 0 0 10.1875,-4.91993 z m -147.61133,7.25782 a 216.42857,286.42859 0 0 0 13.22071,4.80664 216.42857,286.42859 0 0 1 -13.22071,-4.80664 z m 127.19336,2.16015 a 216.42857,286.42859 0 0 1 -10.49414,3.54688 216.42857,286.42859 0 0 0 10.49414,-3.54688 z m -106.13672,5.29492 a 216.42857,286.42859 0 0 0 12.49805,2.8086 216.42857,286.42859 0 0 1 -12.49805,-2.8086 z m 85.11524,1.37891 a 216.42857,286.42859 0 0 1 -10.73633,2.14649 216.42857,286.42859 0 0 0 10.73633,-2.14649 z m -63.57032,3.24023 a 216.42857,286.42859 0 0 0 11.54493,1.04297 216.42857,286.42859 0 0 1 -11.54493,-1.04297 z m 42.1543,0.62305 a 216.42857,286.42859 0 0 1 -18.46484,1.22266 216.42857,286.42859 0 0 0 18.46484,-1.22266 z"
         id="path4234"
         inkscape:connector-curvature="0" />
    </g>
    <g
       id="g4238"
       transform="translate(1969.2864,-53.571458)">
      <rect
         style="opacity:1;fill:#afc74d;fill-opacity:1;fill-rule:nonzero;stroke:none;stroke-width:6;stroke-linecap:round;stroke-linejoin:miter;stroke-miterlimit:4;stroke-dasharray:none;stroke-opacity:1"
         id="rect4240"
         width="600"
         height="600"
         x="-682.85718"
         y="183.79077"
         ry="0" />
      <rect
         style="opacity:1;fill:#6c6753;fill-opacity:1;fill-rule:nonzero;stroke:none;stroke-width:6;stroke-linecap:round;stroke-linejoin:miter;stroke-miterlimit:4;stroke-dasharray:none;stroke-opacity:1"
         id="rect4242"
         width="571.42859"
         height="194.28572"
         x="-668.57147"
         y="386.64792" />
    </g>
  </g>
</svg>
